<?xml version="1.0" standalone="no"?>
<!DOCTYPE svg PUBLIC "-//W3C//DTD SVG 20010904//EN"
 "http://www.w3.org/TR/2001/REC-SVG-20010904/DTD/svg10.dtd">
<svg version="1.0" xmlns="http://www.w3.org/2000/svg"
 width="500.000000pt" height="500.000000pt" viewBox="0 0 500.000000 500.000000"
 preserveAspectRatio="xMidYMid meet">
<metadata>
Created by potrace 1.14, written by Peter Selinger 2001-2017
</metadata>
<g transform="translate(0.000000,500.000000) scale(0.100000,-0.100000)"
fill="#000000" stroke="none">
<path d="M2266 4990 c-333 -38 -585 -111 -872 -251 -242 -118 -458 -272 -655
-469 -403 -403 -640 -882 -721 -1465 -16 -116 -16 -494 0 -610 68 -488 246
-904 545 -1275 79 -98 272 -290 367 -365 276 -220 605 -385 935 -471 235 -61
380 -79 640 -78 261 0 399 18 634 79 260 69 517 184 732 327 169 113 254 182
390 318 396 396 627 857 716 1430 24 160 24 520 0 680 -74 480 -247 875 -540
1240 -100 124 -299 314 -433 414 -347 258 -705 409 -1129 477 -148 23 -480 33
-609 19z m-951 -964 c73 -19 127 -49 167 -94 37 -41 85 -132 95 -182 8 -43 18
-45 42 -6 33 53 152 160 230 206 70 42 201 90 244 90 14 0 26 -10 34 -25 10
-22 7 -38 -18 -106 -77 -211 -78 -464 -3 -681 15 -43 24 -81 21 -85 -10 -9
-45 25 -87 87 -81 120 -139 268 -166 425 -9 49 -17 92 -19 93 -10 11 -69 -92
-88 -152 -19 -63 -22 -91 -21 -243 1 -132 -2 -173 -12 -173 -21 0 -99 95 -137
167 -44 84 -64 140 -117 317 -50 167 -76 221 -128 267 -22 19 -53 45 -68 59
-16 14 -40 30 -54 37 l-25 11 30 1 c17 0 53 -5 80 -13z m1521 -6 c176 -45 306
-147 383 -301 59 -117 54 -133 -22 -80 -64 43 -140 80 -204 96 -72 19 -200 19
-278 1 -64 -15 -77 -14 -69 9 4 10 0 12 -18 7 -22 -5 -22 -4 7 30 17 19 45 46
64 59 l34 24 -34 7 c-41 8 -149 -6 -216 -28 -118 -39 -223 -126 -273 -224 -50
-98 -83 -63 -61 64 22 130 100 230 226 291 133 65 313 82 461 45z m581 -479
c23 -75 27 -105 27 -226 1 -168 -17 -245 -94 -400 -56 -113 -163 -265 -187
-265 -10 0 -13 6 -9 17 6 14 3 14 -15 -3 -22 -19 -22 -19 -14 1 4 11 19 56 33
100 23 71 26 97 26 235 1 143 -1 161 -26 235 -50 147 -108 225 -287 386 l-62
56 58 -9 c95 -14 180 -47 259 -100 84 -56 95 -77 70 -138 -25 -63 -21 -107 13
-141 50 -49 120 -37 140 24 14 41 2 81 -29 97 -11 6 -20 17 -20 26 0 8 -6 17
-14 20 -11 4 -9 14 10 49 16 27 28 73 35 128 l11 85 25 -45 c13 -25 36 -84 50
-132z m-1537 -106 c40 -186 99 -311 182 -391 24 -23 97 -77 162 -120 153 -101
294 -230 272 -251 -3 -3 -34 8 -69 25 -171 85 -383 52 -524 -80 -35 -34 -58
-48 -60 -40 -4 10 -8 10 -21 0 -13 -11 -15 -11 -10 2 3 8 13 42 22 74 23 78
63 156 120 234 25 34 40 62 33 62 -24 0 -108 -30 -171 -60 -84 -40 -174 -108
-232 -176 -45 -53 -69 -69 -58 -39 4 8 3 15 0 15 -4 0 -11 -10 -16 -22 l-9
-23 0 22 c-1 38 39 131 89 206 46 68 171 198 234 242 l28 20 -18 60 c-15 47
-19 92 -19 205 0 80 4 159 8 175 l9 30 14 -40 c8 -22 24 -80 34 -130z m1186
-344 c24 -105 16 -238 -19 -314 -51 -113 -166 -191 -324 -222 -85 -17 -129
-17 -126 0 1 6 -7 13 -17 17 -17 6 -13 14 36 60 96 90 180 232 206 346 l12 54
22 -44 c16 -30 23 -61 24 -101 0 -68 9 -67 45 3 35 69 62 174 70 276 l8 88 23
-45 c13 -24 31 -77 40 -118z m-1291 -311 c-19 -37 -19 -46 0 -30 22 19 19 4
-23 -95 -67 -155 -77 -203 -77 -360 1 -123 3 -147 24 -199 22 -55 83 -136 102
-136 5 0 9 36 9 80 0 78 -1 83 -39 133 -46 61 -85 137 -72 137 5 0 13 -5 16
-10 9 -15 81 -50 103 -50 14 0 21 13 31 50 18 69 84 202 137 277 49 68 60 77
50 39 -3 -15 -1 -26 6 -28 8 -3 3 -35 -15 -109 -42 -163 -51 -242 -51 -414 1
-298 74 -541 214 -712 47 -57 125 -124 178 -152 12 -6 22 -21 22 -31 0 -16 -7
-20 -31 -20 -68 0 -198 45 -291 101 l-37 22 -73 -36 c-125 -61 -288 -106 -288
-79 0 6 6 13 13 15 6 3 -3 6 -22 6 l-34 1 59 39 c139 91 224 234 224 377 0 80
-11 109 -52 134 -40 24 -126 27 -168 5 -54 -28 -79 -117 -43 -157 22 -25 98
-24 141 2 32 20 32 20 32 0 0 -11 5 -20 10 -20 16 0 11 -41 -10 -88 -41 -91
-186 -202 -345 -263 -140 -55 -249 -73 -198 -33 16 12 13 13 -27 8 -41 -5 -35
-1 68 50 90 45 127 71 189 130 l76 74 -33 38 c-54 63 -80 129 -80 209 0 79 19
131 69 188 l32 36 -22 68 c-30 94 -38 289 -16 395 29 139 98 273 202 392 46
52 62 59 40 16z m627 -155 c57 -20 58 -47 2 -78 -49 -28 -77 -79 -70 -127 7
-43 28 -60 76 -60 80 0 136 59 113 120 -6 17 -10 30 -8 30 2 0 33 -7 70 -15
175 -41 320 -146 434 -313 48 -71 94 -167 89 -183 -2 -6 -35 21 -73 61 -117
120 -318 260 -376 260 -10 0 -32 -20 -49 -44 -89 -123 -283 -139 -386 -31 -96
100 -95 256 3 346 51 48 103 58 175 34z m298 -387 c0 -6 7 -19 15 -28 24 -26
29 -108 11 -159 l-16 -44 39 -71 c56 -101 78 -163 111 -306 35 -158 48 -188
104 -248 62 -66 49 -82 -32 -42 -116 58 -190 164 -263 376 -54 157 -91 225
-156 284 -29 27 -53 53 -53 59 0 5 -8 14 -17 20 -14 7 -10 11 22 16 99 17 167
56 200 118 19 37 35 48 35 25z m192 -200 c126 -75 224 -171 272 -265 22 -43
20 -63 -4 -63 -34 0 -79 -28 -95 -60 -23 -44 -19 -78 14 -111 51 -50 141 -35
193 33 17 23 18 23 18 2 0 -12 7 -27 15 -34 8 -7 15 -26 15 -42 0 -134 106
-254 264 -299 45 -13 53 -18 32 -18 -29 -1 -29 -2 -10 -17 17 -14 12 -15 -71
-10 -269 15 -445 137 -538 370 -15 35 -45 135 -67 222 -23 87 -54 196 -70 241
-16 46 -27 83 -25 83 3 0 28 -14 57 -32z"/>
</g>
</svg>
